<svg xmlns="http://www.w3.org/2000/svg" xmlns:fi="http://pattern.flaticon.com/" xmlns:xlink="http://www.w3.org/1999/xlink" width="700" height="350">
  <defs>
    <path id="e" fill="#ededed" d="M501.333 96H10.667C4.779 96 0 100.779 0 106.667v298.667C0 411.221 4.779 416 10.667 416h490.667c5.888 0 10.667-4.779 10.667-10.667V106.667C512 100.779 507.221 96 501.333 96z" transform="matrix(.01656 .00994 -.00994 .01656 75.3040034 159.2160136)"/>
    <path id="a" fill="#ededed" d="M507.807 200.272L262.474 12.859c-3.819-2.923-9.109-2.923-12.949 0L4.191 200.272c-3.627 2.773-5.077 7.509-3.648 11.84l93.717 281.92c1.451 4.352 5.547 7.296 10.133 7.296h303.253c4.608 0 8.683-2.944 10.091-7.296l93.717-281.92c1.431-4.309-.041-9.066-3.647-11.84zM399.946 479.995H112.095L23.221 212.582l232.81-177.835 232.811 177.856-88.896 267.392z" transform="matrix(.08181 0 0 .08181 315.03847787 38.04314622)"/>
    <path id="c" fill="#ededed" d="M500.248 496.747L265.581 6.08c-.064-.128-.213-.171-.299-.299C263.512 2.389 260.056 0 255.96 0c-4.096 0-7.531 2.389-9.323 5.781-.064.128-.235.171-.299.299L11.672 496.747c-.107.213-.043.448-.128.64-.491 1.195-.725 2.453-.747 3.755 0 .341-.128.661-.085 1.024.107 1.451.491 2.901 1.237 4.267.064.107.171.128.213.235.064.107.043.256.107.363.683 1.088 1.728 1.792 2.709 2.56.384.299.64.768 1.067 1.003 1.579.896 3.371 1.408 5.248 1.408h469.333c3.669 0 7.083-1.877 9.024-4.971s2.198-6.978.598-10.284zM245.293 57.664v309.333L45.144 476.181 245.293 57.664zM63.128 490.667l192.725-105.109L439.81 490.667H63.128zm203.499-123.52V57.728l203.648 425.771-203.648-116.352z" transform="matrix(-.08175 -.02255 -.02255 .08175 244.75163587 223.8516543)"/>
  </defs>
  <g opacity=".4" fi:class="KUsePattern">
    <pattern id="b" width="350" height="350" patternUnits="userSpaceOnUse">
      <use x="-350" y="-350" xlink:href="#a"/>
      <use y="-350" xlink:href="#a"/>
      <use x="350" y="-350" xlink:href="#a"/>
      <use x="-350" xlink:href="#a"/>
      <use xlink:href="#a"/>
      <use x="350" xlink:href="#a"/>
      <use x="-350" y="350" xlink:href="#a"/>
      <use y="350" xlink:href="#a"/>
      <use x="350" y="350" xlink:href="#a"/>
    </pattern>
    <rect width="100%" height="100%" fill="url(#b)"/>
  </g>
  <g opacity=".4" fi:class="KUsePattern">
    <pattern id="d" width="350" height="350" patternUnits="userSpaceOnUse">
      <use x="-350" y="-350" xlink:href="#c"/>
      <use y="-350" xlink:href="#c"/>
      <use x="350" y="-350" xlink:href="#c"/>
      <use x="-350" xlink:href="#c"/>
      <use xlink:href="#c"/>
      <use x="350" xlink:href="#c"/>
      <use x="-350" y="350" xlink:href="#c"/>
      <use y="350" xlink:href="#c"/>
      <use x="350" y="350" xlink:href="#c"/>
    </pattern>
    <rect width="100%" height="100%" fill="url(#d)"/>
  </g>
  <g opacity=".4" fi:class="KUsePattern">
    <pattern id="f" width="350" height="350" patternUnits="userSpaceOnUse">
      <use x="-350" y="-350" xlink:href="#e"/>
      <use y="-350" xlink:href="#e"/>
      <use x="350" y="-350" xlink:href="#e"/>
      <use x="-350" xlink:href="#e"/>
      <use xlink:href="#e"/>
      <use x="350" xlink:href="#e"/>
      <use x="-350" y="350" xlink:href="#e"/>
      <use y="350" xlink:href="#e"/>
      <use x="350" y="350" xlink:href="#e"/>
    </pattern>
    <rect width="100%" height="100%" fill="url(#f)"/>
  </g>
</svg>
