<svg id="Capa_1" enable-background="new 0 0 512.001 512.001" height="512" viewBox="0 0 512.001 512.001" width="512" xmlns="http://www.w3.org/2000/svg" xmlns:xlink="http://www.w3.org/1999/xlink"><linearGradient id="SVGID_1_" gradientUnits="userSpaceOnUse" x1="256.001" x2="256.001" y1="512.001" y2="0"><stop offset="0" stop-color="#00b59c"/><stop offset="1" stop-color="#9cffac"/></linearGradient><g><g><path d="m301.001 241.001c-8.271 0-15-6.729-15-15 0-8.284-6.716-15-15-15s-15 6.716-15 15c0 19.555 12.541 36.228 30 42.42v18.58c0 8.284 6.716 15 15 15s15-6.716 15-15v-18.58c17.459-6.192 30-22.865 30-42.42 0-24.813-20.187-45-45-45-8.271 0-15-6.729-15-15s6.729-15 15-15 15 6.729 15 15c0 8.284 6.716 15 15 15s15-6.716 15-15c0-19.555-12.541-36.228-30-42.42v-17.58c0-8.284-6.716-15-15-15s-15 6.716-15 15v17.58c-17.459 6.192-30 22.865-30 42.42 0 24.813 20.187 45 45 45 8.271 0 15 6.729 15 15s-6.729 15-15 15zm154.135-240.418c-6.432-1.844-13.309.794-16.855 6.469-5.455 8.728-14.487 13.734-24.78 13.734s-19.325-5.006-24.78-13.734c-2.741-4.386-7.548-7.05-12.72-7.05s-9.979 2.664-12.72 7.05c-5.455 8.728-14.487 13.734-24.78 13.734s-19.325-5.006-24.78-13.734c-2.741-4.386-7.548-7.05-12.72-7.05s-9.979 2.664-12.72 7.05c-5.455 8.728-14.487 13.734-24.78 13.734s-19.325-5.006-24.78-13.734c-2.741-4.386-7.548-7.05-12.72-7.05s-9.979 2.664-12.72 7.05c-5.455 8.728-14.487 13.734-24.78 13.734s-19.325-5.006-24.78-13.734c-3.547-5.675-10.423-8.314-16.855-6.469s-10.865 7.727-10.865 14.419v377h-75c-8.284 0-15 6.716-15 15v45c0 33.084 26.916 60 60 60h285c41.355 0 75-33.645 75-75v-422c0-6.692-4.433-12.575-10.865-14.419zm-319.135 451.418c0 16.542-13.458 30-30 30s-30-13.458-30-30v-30h60zm300-15c0 24.813-20.187 45-45 45h-233.072c5.123-8.833 8.072-19.075 8.072-30 0-34.684 0-386.175 0-405.609 7.01 2.865 14.625 4.393 22.5 4.393 13.957 0 27.095-4.799 37.5-13.337 10.405 8.538 23.543 13.337 37.5 13.337s27.095-4.799 37.5-13.337c10.405 8.538 23.543 13.337 37.5 13.337s27.095-4.799 37.5-13.337c10.405 8.538 23.543 13.337 37.5 13.337 7.875 0 15.49-1.528 22.5-4.393zm-45-105h-180c-8.284 0-15 6.716-15 15s6.716 15 15 15h180c8.284 0 15-6.716 15-15s-6.716-15-15-15zm0 60h-180c-8.284 0-15 6.716-15 15s6.716 15 15 15h180c8.284 0 15-6.716 15-15s-6.716-15-15-15z" fill="url(#SVGID_1_)"/></g></g></svg>