<?xml version="1.0" encoding="utf-8"?>
<!-- Generator: Adobe Illustrator 23.0.0, SVG Export Plug-In . SVG Version: 6.00 Build 0)  -->
<svg version="1.2" baseProfile="tiny" id="Calque_1"
	 xmlns="http://www.w3.org/2000/svg" xmlns:xlink="http://www.w3.org/1999/xlink" x="0px" y="0px" viewBox="0 0 198 233"
	 xml:space="preserve">
<g>
	<g>
		<path fill="#FFFFFF" d="M114.45,26.98c31.21,0,56.61,25.39,56.61,56.61v108.86c0,0,0,0,0,0c-1.28,7.52-7.35,13.37-14.95,14.34
			c0,0,0,0,0,0h-72.4c-31.28,0-56.63-25.36-56.63-56.63V44.49c0-9.67,7.84-17.51,17.51-17.51H114.45 M114.45,0.34H44.58
			C20.2,0.34,0.43,20.11,0.43,44.49v105.67c0,45.99,37.28,83.27,83.27,83.27h73.72c0,0,0,0,0,0c21.13-1.7,38.05-18.28,40.27-39.25
			c0,0,0,0,0,0V83.59C197.7,37.61,160.43,0.34,114.45,0.34L114.45,0.34z"/>
	</g>
</g>
<g id="Settings">
	<g>
		<path fill-rule="evenodd" fill="#FFFFFF" d="M152.43,110.9c-0.17-1.51-1.94-2.65-3.46-2.65c-4.94,0-9.32-2.9-11.16-7.38
			c-1.88-4.59-0.67-9.95,3.01-13.32c1.16-1.06,1.3-2.83,0.33-4.06c-2.53-3.21-5.4-6.11-8.54-8.62c-1.23-0.99-3.03-0.85-4.1,0.33
			c-3.21,3.56-8.98,4.88-13.44,3.02c-4.64-1.95-7.56-6.65-7.28-11.7c0.09-1.59-1.06-2.96-2.64-3.15c-4.02-0.47-8.09-0.48-12.12-0.03
			c-1.56,0.17-2.72,1.52-2.67,3.08c0.18,5-2.79,9.62-7.38,11.5c-4.4,1.8-10.13,0.49-13.34-3.04c-1.06-1.16-2.83-1.3-4.07-0.34
			c-3.23,2.53-6.17,5.44-8.72,8.62c-0.99,1.24-0.85,3.03,0.32,4.1c3.75,3.4,4.96,8.8,3.01,13.44c-1.86,4.43-6.46,7.28-11.72,7.28
			c-1.71-0.05-2.93,1.09-3.11,2.65c-0.47,4.05-0.48,8.17-0.02,12.25c0.17,1.52,1.99,2.65,3.53,2.65c4.69-0.12,9.2,2.79,11.09,7.38
			c1.88,4.59,0.67,9.95-3.01,13.32c-1.15,1.06-1.3,2.83-0.33,4.06c2.5,3.19,5.38,6.09,8.52,8.62c1.23,0.99,3.03,0.85,4.1-0.32
			c3.22-3.57,8.99-4.89,13.43-3.02c4.65,1.95,7.58,6.65,7.29,11.69c-0.09,1.59,1.07,2.97,2.64,3.15c2.06,0.24,4.13,0.36,6.21,0.36
			c1.97,0,3.94-0.11,5.92-0.33c1.56-0.17,2.72-1.52,2.67-3.09c-0.18-4.99,2.79-9.61,7.37-11.49c4.43-1.81,10.14-0.49,13.34,3.04
			c1.07,1.16,2.83,1.3,4.07,0.34c3.22-2.53,6.15-5.43,8.72-8.62c0.99-1.23,0.85-3.03-0.32-4.1c-3.75-3.4-4.97-8.8-3.02-13.44
			c1.83-4.37,6.26-7.3,11.02-7.3l0.67,0.02c1.54,0.13,2.97-1.06,3.15-2.64C152.88,119.1,152.88,114.98,152.43,110.9z M98.97,134.97
			C89.06,134.97,81,126.91,81,117c0-9.91,8.06-17.97,17.97-17.97c9.91,0,17.97,8.06,17.97,17.97
			C116.94,126.91,108.88,134.97,98.97,134.97z"/>
	</g>
</g>
</svg>
