<svg xmlns="http://www.w3.org/2000/svg" xmlns:xlink="http://www.w3.org/1999/xlink" width="64" height="64" version="1">
  <defs>
    <linearGradient id="d" x1="541.33502" x2="606.91248" y1="104.50665" y2="303.14029" gradientTransform="matrix(-.39377 0 0 .39375 978.34966 416.9815)" gradientUnits="userSpaceOnUse" xlink:href="#a"/>
    <linearGradient id="a" x1="112.49854" x2="112.49853" y1="6.1372099" y2="129.3468" gradientTransform="translate(287 -83)" gradientUnits="userSpaceOnUse">
      <stop offset="0" stop-color="#fff" stop-opacity="0"/>
      <stop offset="1" stop-color="#fff" stop-opacity=".27450982"/>
      <midPointStop offset=".5" stop-color="#fff"/>
    </linearGradient>
    <linearGradient id="b">
      <stop offset="0" stop-color="#00bdec"/>
      <stop offset="1" stop-color="#40bfde"/>
    </linearGradient>
    <linearGradient id="c">
      <stop offset="0" stop-color="#6e6e6e"/>
      <stop offset="1" stop-color="#4d4d4d"/>
    </linearGradient>
  </defs>
  <g fill-rule="evenodd">
    <path fill="#1793d1" d="M32.00000066-.0000027c-2.84870495 6.98426264-4.57834243 11.55929057-7.74999988 18.33593722 1.94462497 2.06130171 4.33456494 4.45293818 8.21093738 7.16406238-4.16747994-1.71489422-7.0083924-3.43212594-9.13281236-5.21874991C19.2690106 28.75121935 12.9054122 40.81159416.00000116 63.9999963c10.1406766-5.8543899 18.00189897-9.46541735 25.3281246-10.84374983-.31343999-1.35108748-.48087624-2.81937995-.46874999-4.34374993l.0078125-.3203125c.1609475-6.4984949 3.54233495-11.49555982 7.54687489-11.15624982 4.00453743.3393075 7.12188489 5.8843174 6.96093739 12.3828123-.0303175 1.22405499-.172625 2.40020497-.4140625 3.49218745 7.2473824 1.41828998 15.03446727 5.01322992 25.03906211 10.78906233-1.97298247-3.63240494-3.74012744-6.90495739-5.42187491-10.02343734-2.64902246-2.05317247-5.41075242-4.72435743-11.04687483-7.61718738 3.87394994 1.00661248 6.6504599 2.17062496 8.81249986 3.46874994C39.24496305 17.99316402 37.86355558 13.7600911 32.00000066-.0000027z"/>
    <path fill="#fff" fill-opacity=".16568047" d="M50.01294186 38.03943755C36.14130249 19.21162142 32.92600318 4.03697577 32.1115796.41412445c7.39953504 17.06731763 7.34899525 17.27661447 17.90136225 37.6253131z"/>
    <path fill="url(#d)" d="M765.12124 436.36538c-1.06809 2.62569-2.07571 5.18569-3.06152 7.60742-1.08115 2.65585-2.13247 5.21447-3.1543 7.70019-1.02175 2.48575-2.05759 4.84198-3.06152 7.23633-1.00399 2.39446-1.9411 4.7617-2.96875 7.14356-1.02758 2.38177-2.15434 4.78844-3.24707 7.23632-1.09273 2.44796-2.23335 4.92185-3.43262 7.51465-1.19937 2.59282-2.45641 5.34774-3.80371 8.16407-.18273.38196-.37075.81915-.55664 1.20605 5.75763 6.09886 12.85563 13.14354 24.30664 21.15234-12.3722-5.09109-20.78297-10.18912-27.08984-15.49316-.32869.67104-.58906 1.26104-.92774 1.94824-1.24721 2.58455-2.58439 5.14414-3.98925 7.97852-.33495.66595-.58339 1.26662-.92774 1.94824-1.485 2.98035-3.04573 6.06522-4.73144 9.37012-.33426.65055-.6781 1.19104-1.02051 1.85547-1.02029 1.97964-4.27491 8.22324-7.60742 14.56543-1.94316 3.70493-3.46894 6.73989-5.65918 10.85449-.62086 1.18197-1.8984 3.54789-2.22657 4.1748 24.12062-13.57765 50.143-33.2992 97.41211-16.4209-2.36708-4.48319-4.63595-8.66436-6.67968-12.61718-2.0437-3.95294-3.89608-7.63232-5.65918-11.13282-1.76296-3.50043-3.39212-6.80069-4.917-9.92675-1.52486-3.12599-2.93832-6.07649-4.26757-8.90625-1.32933-2.8297-2.62746-5.55264-3.80372-8.16407-1.17634-2.61139-2.27388-5.13635-3.33984-7.60742-1.06607-2.4712-2.06338-4.92037-3.06152-7.3291-.99823-2.4088-1.99587-4.719-2.96875-7.14355-.42343-1.055-.78165-2.1785-1.20606-3.24707-2.63564-6.18974-5.22363-12.32495-8.34961-19.66797z" transform="translate(-225.60004584 -146.73622946) scale(.33684)"/>
  </g>
</svg>
