<svg xmlns="http://www.w3.org/2000/svg" xmlns:xlink="http://www.w3.org/1999/xlink" xmlns:fi="http://pattern.flaticon.com/" x="0" y="0" width="700" height="350" viewBox="0 0 700 350"><rect x="0px" y="0px" width="100%" height="100%" opacity="0" fill="#ff4707"/><defs><path d="M501.333,96H10.667C4.779,96,0,100.779,0,106.667v298.667C0,411.221,4.779,416,10.667,416h490.667    c5.888,0,10.667-4.779,10.667-10.667V106.667C512,100.779,507.221,96,501.333,96z" transform="matrix(0.01656246680645853 0.00993748009535692 -0.00993748009535692 0.01656246680645853 75.30400340195798 159.21601359313524)" id="L1_51" fill="#ededed"/><path d="M507.807,200.272L262.474,12.859c-3.819-2.923-9.109-2.923-12.949,0L4.191,200.272c-3.627,2.773-5.077,7.509-3.648,11.84    l93.717,281.92c1.451,4.352,5.547,7.296,10.133,7.296h303.253c4.608,0,8.683-2.944,10.091-7.296l93.717-281.92    C512.885,207.803,511.413,203.046,507.807,200.272z M399.946,479.995H112.095L23.221,212.582L256.031,34.747l232.811,177.856    L399.946,479.995z" transform="matrix(0.08181300014257431 0 0 0.08181300014257431 315.038477871567 38.04314621862329)" id="L1_52" fill="#ededed"/><path d="M500.248,496.747L265.581,6.08c-0.064-0.128-0.213-0.171-0.299-0.299C263.512,2.389,260.056,0,255.96,0    c-4.096,0-7.531,2.389-9.323,5.781c-0.064,0.128-0.235,0.171-0.299,0.299L11.672,496.747c-0.107,0.213-0.043,0.448-0.128,0.64    c-0.491,1.195-0.725,2.453-0.747,3.755c0,0.341-0.128,0.661-0.085,1.024c0.107,1.451,0.491,2.901,1.237,4.267    c0.064,0.107,0.171,0.128,0.213,0.235c0.064,0.107,0.043,0.256,0.107,0.363c0.683,1.088,1.728,1.792,2.709,2.56    c0.384,0.299,0.64,0.768,1.067,1.003c1.579,0.896,3.371,1.408,5.248,1.408h469.333c3.669,0,7.083-1.877,9.024-4.971    S501.848,500.053,500.248,496.747z M245.293,57.664v309.333L45.144,476.181L245.293,57.664z M63.128,490.667l192.725-105.109    l183.957,105.109H63.128z M266.627,367.147V57.728l203.648,425.771L266.627,367.147z" transform="matrix(-0.08174685181718491 -0.022550855341394175 -0.022550855341394175 0.08174685181718491 244.75163587453744 223.85165429830332)" id="L1_53" fill="#ededed"/></defs><g fi:class="KUsePattern" opacity="0.4"><pattern id="pattern_L1_52" width="350" height="350" patternUnits="userSpaceOnUse"><use xlink:href="#L1_52" x="-350" y="-350"/><use xlink:href="#L1_52" x="0" y="-350"/><use xlink:href="#L1_52" x="350" y="-350"/><use xlink:href="#L1_52" x="-350" y="0"/><use xlink:href="#L1_52" x="0" y="0"/><use xlink:href="#L1_52" x="350" y="0"/><use xlink:href="#L1_52" x="-350" y="350"/><use xlink:href="#L1_52" x="0" y="350"/><use xlink:href="#L1_52" x="350" y="350"/></pattern><rect x="0" y="0" width="100%" height="100%" fill="url(#pattern_L1_52)"/></g><g fi:class="KUsePattern" opacity="0.4"><pattern id="pattern_L1_53" width="350" height="350" patternUnits="userSpaceOnUse"><use xlink:href="#L1_53" x="-350" y="-350"/><use xlink:href="#L1_53" x="0" y="-350"/><use xlink:href="#L1_53" x="350" y="-350"/><use xlink:href="#L1_53" x="-350" y="0"/><use xlink:href="#L1_53" x="0" y="0"/><use xlink:href="#L1_53" x="350" y="0"/><use xlink:href="#L1_53" x="-350" y="350"/><use xlink:href="#L1_53" x="0" y="350"/><use xlink:href="#L1_53" x="350" y="350"/></pattern><rect x="0" y="0" width="100%" height="100%" fill="url(#pattern_L1_53)"/></g><g fi:class="KUsePattern" opacity="0.4"><pattern id="pattern_L1_51" width="350" height="350" patternUnits="userSpaceOnUse"><use xlink:href="#L1_51" x="-350" y="-350"/><use xlink:href="#L1_51" x="0" y="-350"/><use xlink:href="#L1_51" x="350" y="-350"/><use xlink:href="#L1_51" x="-350" y="0"/><use xlink:href="#L1_51" x="0" y="0"/><use xlink:href="#L1_51" x="350" y="0"/><use xlink:href="#L1_51" x="-350" y="350"/><use xlink:href="#L1_51" x="0" y="350"/><use xlink:href="#L1_51" x="350" y="350"/></pattern><rect x="0" y="0" width="100%" height="100%" fill="url(#pattern_L1_51)"/></g></svg>