<?xml version="1.0" encoding="iso-8859-1"?>
<!-- Generator: Adobe Illustrator 19.0.0, SVG Export Plug-In . SVG Version: 6.00 Build 0)  -->
<svg version="1.1" id="Capa_1" xmlns="http://www.w3.org/2000/svg" xmlns:xlink="http://www.w3.org/1999/xlink" x="0px" y="0px"
	 viewBox="0 0 408.8 408.8" style="enable-background:new 0 0 408.8 408.8;" xml:space="preserve">
<g>
	<polygon style="fill:#C99E79;" points="176.8,291.6 204.4,208 34.4,107.2 5.6,191.2 91.2,241.2 	"/>
	<polygon style="fill:#643513;" points="204.4,7.2 290,57.2 375.2,107.6 290,157.6 203.6,208.4 118.8,157.6 33.6,107.6 118.8,57.2 	
		"/>
	<polygon style="fill:#926E43;" points="203.6,208.4 203.6,403.6 33.6,305.2 33.6,207.6 91.2,241.2 176.8,291.6 	"/>
	<polygon style="fill:#D9AC80;" points="33.6,107.6 0,105.2 171.2,5.2 204.4,7.2 118.8,57.2 	"/>
	<path style="fill:#A67E4F;" d="M375.2,113.2v-5.6l-1.6,0.8L375.2,113.2z M203.6,208.4v195.2l170-98.4l0.8-98.4l-58.8,34.4
		L230,291.6L203.6,208.4z"/>
	<g>
		<polygon style="fill:#D9AC80;" points="230,291.6 203.6,208.4 373.6,107.6 401.2,191.2 315.6,241.2 		"/>
		<polygon style="fill:#D9AC80;" points="375.2,107.6 408.8,105.2 237.6,5.2 204.4,7.2 290,57.2 		"/>
	</g>
	<polygon style="fill:#8D5122;" points="204.4,140.4 204.4,7.2 118.8,57.2 33.6,107.6 118.8,157.6 146.4,174 	"/>
	<polygon style="fill:#77411B;" points="204.4,7.2 204.4,140.4 262,173.6 373.6,107.6 373.6,108.4 375.2,107.6 290,57.2 	"/>
</g>
<g>
</g>
<g>
</g>
<g>
</g>
<g>
</g>
<g>
</g>
<g>
</g>
<g>
</g>
<g>
</g>
<g>
</g>
<g>
</g>
<g>
</g>
<g>
</g>
<g>
</g>
<g>
</g>
<g>
</g>
</svg>
