<svg xmlns="http://www.w3.org/2000/svg" viewBox="0 0 32 32"><g fill="none" fill-rule="evenodd"><path d="M0 0h32v32H0z"/><path d="M16.037 0c-1.913 0-3.826.165-5.74.489C5.103 1.371 1.773 4.287.69 9.524c-.86 4.151-.94 8.33-.107 12.466 1.025 5.316 4.255 8.557 9.604 9.503 1.925.34 3.85.507 5.778.507 1.912 0 3.826-.165 5.739-.489 5.176-.878 8.593-4.088 9.687-9.289.817-4.105.805-8.257.013-12.366-1.024-5.316-4.24-8.403-9.59-9.349A33.136 33.136 0 0016.037 0" fill="#EEF" fill-rule="nonzero"/><g fill-rule="nonzero"><path fill="#EEF" d="M21 13l5 3v6l-5 3-5-3v-6z"/><path d="M21 14.166l-4 2.4v4.868l4 2.4 4-2.4v-4.868l-4-2.4z" stroke="#4F0599" stroke-width="2"/></g><g fill-rule="nonzero"><path fill="#EEF" d="M11 17l5 3v6l-5 3-5-3v-6z"/><path d="M11 16.166l-4 2.4v4.868l4 2.4 4-2.4v-4.868l-4-2.4z" stroke="#4F0599" stroke-width="2"/></g><g fill-rule="nonzero"><path fill="#EEF" d="M11 7l5 3v6l-5 3-5-3v-6z"/><path d="M11 8.166l-4 2.4v4.868l4 2.4 4-2.4v-4.868l-4-2.4z" stroke="#4F0599" stroke-width="2"/></g><g fill-rule="nonzero"><path fill="#EEF" d="M21 5l5 3v6l-5 3-5-3V8z"/><path d="M21 6.166l-4 2.4v4.868l4 2.4 4-2.4V8.566l-4-2.4z" stroke="#4F0599" stroke-width="2"/></g><g fill-rule="nonzero"><path fill="#EEF" d="M16 9l6 3.5v7L16 23l-6-3.5v-7z"/><path d="M16 10.158l-5 2.916v5.852l5 2.916 5-2.916v-5.852l-5-2.916z" stroke="#AE5CFF" stroke-width="2"/><path fill="#AE5CFF" d="M16 13.2l2.667 1.4v2.8L16 18.8l-2.667-1.4v-2.8z"/></g></g></svg>