<svg xmlns="http://www.w3.org/2000/svg" width="500" height="500">
  <g fill="none" fill-rule="evenodd">
    <path fill="#FC6D26" d="M495.198646 280.225047l-27.558666-84.814664-54.617332-168.097329c-2.809334-8.648-15.045333-8.648-17.856 0l-54.618665 168.097329H159.181321L104.561322 27.313054c-2.8093331-8.648-15.0453328-8.648-17.8559994 0l-54.617332 168.097329-27.55733263 84.814664c-2.51466661 7.736.23999999 16.210666 6.81999983 20.992L249.863985 474.50637568 488.378646 301.217047c6.58-4.781334 9.333333-13.256 6.82-20.992"/>
    <path fill="#E24329" d="M249.8645187 474.506375l90.6839973-279.095993H159.18052097l90.68399773 279.095993z"/>
    <path fill="#FC6D26" d="M249.864518 474.505842l-90.683998-279.09466H32.08852364L249.864518 474.505842z"/>
    <path fill="#FCA326" d="M32.0885236 195.410782L4.52985762 280.225447c-2.51333327 7.735999.24 16.210666 6.82133317 20.990666L249.864518 474.50544169 32.0885236 195.410782z"/>
    <path fill="#E24329" d="M32.088524 195.411049h127.091997L104.5618555 27.31372c-2.8106666-8.649333-15.0466663-8.649333-17.8559995 0L32.088524 195.411049z"/>
    <path fill="#FC6D26" d="M249.864518 474.505842l90.6839977-279.09466H467.640513l-217.775995 279.09466z"/>
    <path fill="#FCA326" d="M467.64038 195.410782l27.558666 84.814665c2.513333 7.735999-.24 16.210666-6.821333 20.990666L249.86438564 474.50544169 467.64038 195.410782z"/>
    <path fill="#E24329" d="M467.64038 195.411049H340.54838298L395.1670483 27.31372c2.8106666-8.649333 15.0466663-8.649333 17.8559995 0L467.64038 195.411049z"/>
  </g>
</svg>
