<svg xmlns="http://www.w3.org/2000/svg" viewBox="0 0 280.062 280.062">
  <path fill="#efc75e" d="M262.797 219.065c-1.636-1.505-17.773-.464-17.773-.464l-.184-17.073-7.893-9.022-18.709-.306-.018-.026c-.079.254-.009-18.779-.009-18.779l-8.733-6.327s-16.985-.499-17.125-.63l-1.365-17.449-15.725-18.613c5.434-11.726 8.567-24.756 8.567-38.539 0-50.711-41.147-91.823-91.901-91.823C41.147.004 0 41.116 0 91.827c0 50.72 41.147 91.84 91.91 91.84 14.08 0 27.373-3.264 39.3-8.926L235.739 279.9s44.253.122 44.253.105l.07-44.664s-6.948-6.773-17.265-16.276zM74.374 96.378c-12.032 0-21.781-9.81-21.781-21.912s9.748-21.921 21.781-21.921 21.79 9.818 21.79 21.921-9.758 21.912-21.79 21.912z"/>
  <path fill="#ca9f30" d="M74.391 43.767c-16.915 0-30.628 13.713-30.628 30.628s13.713 30.628 30.628 30.628c16.924 0 30.628-13.713 30.628-30.628S91.315 43.767 74.391 43.767zm0 43.755c-7.246 0-13.126-5.881-13.126-13.126 0-7.254 5.881-13.126 13.126-13.126 7.246 0 13.126 5.872 13.126 13.126 0 7.245-5.88 13.126-13.126 13.126zM152.239 161.011c-8.357 7.281-18.027 13.03-28.624 16.942l103.916 102.096h43.754L152.239 161.011z"/>
</svg>
