<svg xmlns="http://www.w3.org/2000/svg" viewBox="0 0 58 58">
  <path fill="#556080" d="M54.392 19.5H3.608C1.616 19.5 0 17.884 0 15.892V4.108C0 2.116 1.616.5 3.608.5h50.783C56.384.5 58 2.116 58 4.108v11.783c0 1.993-1.616 3.609-3.608 3.609z"/>
  <path fill="#424a60" d="M54.392 38.5H3.608C1.616 38.5 0 36.884 0 34.892V23.108C0 21.116 1.616 19.5 3.608 19.5h50.783c1.993 0 3.608 1.616 3.608 3.608v11.783C58 36.884 56.384 38.5 54.392 38.5z"/>
  <path fill="#556080" d="M54.392 57.5H3.608C1.616 57.5 0 55.884 0 53.892V42.108C0 40.116 1.616 38.5 3.608 38.5h50.783c1.993 0 3.608 1.616 3.608 3.608v11.783C58 55.884 56.384 57.5 54.392 57.5z"/>
  <circle cx="9.5" cy="10" r="3.5" fill="#7383bf"/>
  <circle cx="49" cy="8.5" r="1" fill="#7383bf"/>
  <circle cx="45" cy="8.5" r="1" fill="#7383bf"/>
  <circle cx="51" cy="11.5" r="1" fill="#7383bf"/>
  <circle cx="47" cy="11.5" r="1" fill="#7383bf"/>
  <circle cx="41" cy="8.5" r="1" fill="#7383bf"/>
  <circle cx="43" cy="11.5" r="1" fill="#7383bf"/>
  <circle cx="37" cy="8.5" r="1" fill="#7383bf"/>
  <circle cx="39" cy="11.5" r="1" fill="#7383bf"/>
  <circle cx="33" cy="8.5" r="1" fill="#7383bf"/>
  <circle cx="35" cy="11.5" r="1" fill="#7383bf"/>
  <circle cx="9.5" cy="29" r="3.5" fill="#7383bf"/>
  <circle cx="49" cy="27.5" r="1" fill="#7383bf"/>
  <circle cx="45" cy="27.5" r="1" fill="#7383bf"/>
  <circle cx="51" cy="30.5" r="1" fill="#7383bf"/>
  <circle cx="47" cy="30.5" r="1" fill="#7383bf"/>
  <circle cx="41" cy="27.5" r="1" fill="#7383bf"/>
  <circle cx="43" cy="30.5" r="1" fill="#7383bf"/>
  <circle cx="37" cy="27.5" r="1" fill="#7383bf"/>
  <circle cx="39" cy="30.5" r="1" fill="#7383bf"/>
  <circle cx="33" cy="27.5" r="1" fill="#7383bf"/>
  <circle cx="35" cy="30.5" r="1" fill="#7383bf"/>
  <circle cx="9.5" cy="48" r="3.5" fill="#7383bf"/>
  <circle cx="49" cy="46.5" r="1" fill="#7383bf"/>
  <circle cx="45" cy="46.5" r="1" fill="#7383bf"/>
  <circle cx="51" cy="49.5" r="1" fill="#7383bf"/>
  <circle cx="47" cy="49.5" r="1" fill="#7383bf"/>
  <circle cx="41" cy="46.5" r="1" fill="#7383bf"/>
  <circle cx="43" cy="49.5" r="1" fill="#7383bf"/>
  <circle cx="37" cy="46.5" r="1" fill="#7383bf"/>
  <circle cx="39" cy="49.5" r="1" fill="#7383bf"/>
  <circle cx="33" cy="46.5" r="1" fill="#7383bf"/>
  <circle cx="35" cy="49.5" r="1" fill="#7383bf"/>
</svg>
