<svg xmlns="http://www.w3.org/2000/svg" viewBox="0 0 512 512">
  <g fill="#ff5722">
    <circle cx="54.674" cy="256" r="53.333"/>
    <circle cx="406.61" cy="458.667" r="53.333"/>
    <circle cx="406.61" cy="53.333" r="53.333"/>
    <path d="M262.098 147.669c2.383 4.129 7.216 6.176 11.84 5.013 55.924-14.4 113.089 18.592 128.597 74.219 1.298 4.593 5.489 7.764 10.261 7.765h87.168c5.891.003 10.669-4.77 10.673-10.661 0-.566-.045-1.132-.134-1.691-6.168-38.801-22.959-75.137-48.512-104.981-3.524-4.066-9.524-4.871-13.995-1.877-12.228 8.182-26.61 12.548-41.323 12.544-40.78-.145-73.959-32.869-74.667-73.643-.078-5.395-4.171-9.882-9.536-10.453-33.448-3.504-67.251.925-98.667 12.928-5.501 2.108-8.251 8.277-6.143 13.778.201.524.443 1.032.724 1.518l43.714 75.541zM499.986 277.333h-87.168c-4.772.001-8.963 3.173-10.261 7.765-15.489 55.642-72.67 88.643-128.597 74.219-4.624-1.163-9.457.884-11.84 5.013l-43.605 75.541c-2.947 5.101-1.201 11.625 3.9 14.572.486.281.994.523 1.518.724 31.384 12.127 65.217 16.56 98.667 12.928 5.365-.571 9.458-5.059 9.536-10.453.472-41.14 34.205-74.109 75.345-73.637 14.435.165 28.511 4.521 40.516 12.538 4.491 2.991 10.507 2.157 14.016-1.941 25.542-29.826 42.332-66.138 48.512-104.917.931-5.817-3.03-11.287-8.847-12.218-.56-.089-1.126-.134-1.692-.134zM223.548 330.261c-40.254-41.333-40.254-107.211 0-148.544 3.338-3.429 3.983-8.662 1.579-12.8l-43.541-75.371c-1.564-2.711-4.239-4.599-7.317-5.163-3.058-.527-6.198.246-8.661 2.133-30.98 25.188-54.276 58.557-67.243 96.32-1.451 4.211-.133 8.881 3.307 11.712 31.735 25.306 36.947 71.546 11.641 103.281-3.432 4.304-7.337 8.209-11.641 11.641-3.44 2.831-4.758 7.501-3.307 11.712 12.975 37.729 36.263 71.067 67.221 96.235 1.905 1.549 4.286 2.392 6.741 2.389.644-.004 1.286-.061 1.92-.171 3.078-.564 5.754-2.452 7.317-5.163l43.541-75.413c2.411-4.131 1.774-9.363-1.557-12.798z"/>
  </g>
</svg>
